<svg width="151" height="99" viewBox="0 0 151 99" fill="none" xmlns="http://www.w3.org/2000/svg">
<g id="Indk&#195;&#184;bskurv ramme">
<g id="Indk&#195;&#184;bsvogn">
<path id="Vector" d="M147.365 2.70905L141.331 1.72903C134.223 0.572489 127.233 3.92713 123.944 10.0913C123.944 10.0913 123.88 10.2144 123.877 10.2274L115.767 25.7135L23.5159 8.24873C17.8383 7.17386 12.7643 11.3373 13.2854 16.6546L16.7465 52.2179C17.294 57.8241 21.8392 62.5242 27.8431 63.6609L86.9948 74.8593C92.9856 75.9935 98.9449 73.2956 101.506 68.2644L121.379 29.2772L129.791 13.1992C131.741 9.53947 135.957 7.55251 140.273 8.24799L146.307 9.22801C148.115 9.52985 149.809 8.29574 150.108 6.5002C150.397 4.68914 149.187 3.01336 147.38 2.69847L147.365 2.70905ZM95.6002 65.2535C94.372 67.6709 91.3342 68.9345 88.2147 68.3439L29.0761 57.1479C25.9567 56.5574 23.6065 54.2602 23.3313 51.5718L19.8702 16.0084C19.8532 15.8835 19.8318 15.5685 20.2086 15.2207C20.3892 15.0521 21.0846 14.5213 22.2853 14.7486L112.631 31.8527L95.6133 65.256L95.6002 65.2535Z" fill="#ADBCDE"/>
<path id="Vector_2" d="M33.5495 67.0802C27.4934 65.9336 21.6413 69.9227 20.4947 75.9788C19.3482 82.0349 23.3373 87.8871 29.3934 89.0336C35.4495 90.1802 41.3017 86.1911 42.4482 80.135C43.5947 74.0788 39.6057 68.2267 33.5495 67.0802ZM30.6239 82.5337C28.1571 82.0667 26.5276 79.6762 26.9946 77.2093C27.4616 74.7425 29.8522 73.113 32.319 73.5801C34.7858 74.0471 36.4153 76.4376 35.9483 78.9044C35.4813 81.3713 33.0907 83.0007 30.6239 82.5337Z" fill="#ADBCDE"/>
<path id="Vector_3" d="M82.4296 76.334C76.3735 75.1875 70.5213 79.1765 69.3748 85.2326C68.2283 91.2888 72.2173 97.1409 78.2734 98.2875C84.3296 99.434 90.1817 95.4449 91.3283 89.3888C92.4748 83.3327 88.4857 77.4805 82.4296 76.334ZM79.504 91.7876C77.0372 91.3206 75.4077 88.93 75.8747 86.4632C76.3417 83.9964 78.7322 82.3669 81.1991 82.8339C83.6659 83.3009 85.2954 85.6914 84.8284 88.1583C84.3613 90.6251 81.9708 92.2546 79.504 91.7876Z" fill="#ADBCDE"/>
</g>
</g>
</svg>
