<svg width="125" height="99" viewBox="0 0 125 99" fill="none" xmlns="http://www.w3.org/2000/svg">
<g id="Brev ramme">
<path id="Brev" d="M96.103 0.268034L12.9685 15.9107C5.56186 17.3043 0.641028 24.46 2.02633 31.8223L12.4788 87.3733C13.8621 94.7247 21.0492 99.6135 28.4558 98.2199L111.601 82.5751C118.997 81.1836 123.929 74.0258 122.543 66.6635L112.091 11.1125C110.708 3.7611 103.521 -1.12767 96.114 0.265963L96.103 0.268034ZM80.4272 45.8292L107.201 15.4646L116.406 64.3863L80.4272 45.8292ZM13.9977 21.3805L97.1432 5.73574C100.412 5.12072 103.589 6.56179 105.339 9.1434L67.5142 52.0535C65.231 54.6352 61.5022 55.3481 58.4347 53.7619L7.58962 27.536C8.28221 24.4947 10.7181 21.9975 13.9867 21.3825L13.9977 21.3805ZM44.1315 52.6587L17.3578 83.0233L8.1527 34.1016L44.1315 52.6587ZM110.559 77.0965L27.4246 92.7392C24.156 93.3542 20.9791 91.9131 19.2285 89.3315L49.2522 55.2858L55.852 58.688C58.5289 60.0759 61.5061 60.4558 64.3014 59.9298C67.0968 59.4038 69.7323 57.9678 71.7217 55.7019L76.6336 50.1337L116.978 70.9389C116.286 73.9802 113.85 76.4773 110.581 77.0924L110.559 77.0965Z" fill="#DCAFC6"/>
</g>
</svg>
