<svg width="117" height="99" viewBox="0 0 117 99" fill="none" xmlns="http://www.w3.org/2000/svg">
<g id="Like ramme">
<path id="Like" d="M81.9583 2.04952C83.4117 2.56946 84.766 3.50586 85.8941 4.77268L86.1161 5.03051L86.1233 5.03931L86.1302 5.04904C92.836 14.7339 90.7214 28.1794 81.2216 35.3095L81.2204 35.3101C80.4459 35.886 80.626 37.0885 81.5368 37.4147L93.6023 41.7312L93.6056 41.722L93.841 41.8062C97.9668 43.2822 100.306 46.5167 100.796 50.449C101.27 54.248 100.018 58.6814 97.0347 62.8158L96.7415 63.215L76.1007 90.6497C73.7734 93.7453 70.4126 96.0186 66.8423 97.2352C63.2732 98.4513 59.4747 98.6175 56.2728 97.472L12.6153 81.8535C6.18274 79.5522 2.79233 72.4025 5.09673 65.9605L18.6356 28.116C20.9369 21.6833 28.0874 18.2931 34.5296 20.5978L47.3905 25.1988L74.697 3.18041L74.7033 3.17437C76.9798 1.46475 79.5946 1.20389 81.9583 2.04952ZM32.82 25.3474C28.9821 23.9744 24.7491 25.984 23.3793 29.813L9.84039 67.6575C8.46767 71.4953 10.4772 75.7284 14.3061 77.0982L22.7728 80.1272L41.2867 28.3763L32.82 25.3474ZM80.2547 6.81157C79.3532 6.48908 78.5462 6.61657 77.7458 7.21152L77.7464 7.21277L50.4471 29.2255C49.2291 30.209 47.6049 30.5289 46.1046 30.0978L27.636 81.867L57.9636 92.7168C60.1266 93.4906 62.8274 93.3091 65.4093 92.3779C67.9889 91.4475 70.4214 89.7782 72.0469 87.6157L92.6877 60.1809L92.7984 60.0339L92.815 60.0398C95.277 56.6908 96.3161 52.9929 95.6346 50.2795L95.5616 50.0169C95.0695 48.3753 93.9314 47.2204 92.1433 46.5807L79.8423 42.18C77.6611 41.3995 76.0976 39.4952 75.7535 37.2147C75.4096 34.9349 76.3342 32.6524 78.1857 31.2654L78.5187 31.0101C85.4128 25.5579 87.0141 15.4363 82.113 8.12567C81.5404 7.49354 80.9057 7.04447 80.2547 6.81157Z" fill="#ADDADC" stroke="#ADDADC" stroke-width="0.5"/>
</g>
</svg>
