<svg width="247" height="35" viewBox="0 0 247 35" fill="none" xmlns="http://www.w3.org/2000/svg">
<path d="M116.502 0C110.952 0.0197294 105.372 0.585306 99.9999 1.76578C99.9759 25.6943 102.763 30.7878 116.502 35C130.237 30.7878 133.027 25.6943 133.003 1.76578C127.632 0.585306 122.051 0.0197294 116.502 0ZM117.433 21.7484L110.572 27.3779L110.702 5.65906L126.44 21.2552L117.433 21.7484Z" fill="#ADDADC"/>
<path d="M243.148 27H240.137L234.301 20.0625H231.031V27H228.711V9.55078H233.598C234.652 9.55078 235.531 9.62109 236.234 9.76172C236.938 9.89453 237.57 10.1367 238.133 10.4883C238.766 10.8867 239.258 11.3906 239.609 12C239.969 12.6016 240.148 13.3672 240.148 14.2969C240.148 15.5547 239.832 16.6094 239.199 17.4609C238.566 18.3047 237.695 18.9414 236.586 19.3711L243.148 27ZM237.723 14.4609C237.723 13.9609 237.633 13.5195 237.453 13.1367C237.281 12.7461 236.992 12.418 236.586 12.1523C236.25 11.9258 235.852 11.7695 235.391 11.6836C234.93 11.5898 234.387 11.543 233.762 11.543H231.031V18.1289H233.375C234.109 18.1289 234.75 18.0664 235.297 17.9414C235.844 17.8086 236.309 17.5664 236.691 17.2148C237.043 16.8867 237.301 16.5117 237.465 16.0898C237.637 15.6602 237.723 15.1172 237.723 14.4609Z" fill="white"/>
<path d="M225.02 27H213.523V9.55078H225.02V11.6133H215.844V16.3945H225.02V18.457H215.844V24.9375H225.02V27Z" fill="white"/>
<path d="M210.91 27H207.898L200.996 19.2305L199.262 21.082V27H196.941V9.55078H199.262V18.6562L207.734 9.55078H210.547L202.754 17.7539L210.91 27Z" fill="white"/>
<path d="M194.27 27H191.258L184.355 19.2305L182.621 21.082V27H180.301V9.55078H182.621V18.6562L191.094 9.55078H193.906L186.113 17.7539L194.27 27Z" fill="white"/>
<path d="M176.293 27H169.402V25.2188H171.688V11.332H169.402V9.55078H176.293V11.332H174.008V25.2188H176.293V27Z" fill="white"/>
<path d="M167.82 27H156.781V9.55078H159.102V24.9375H167.82V27Z" fill="white"/>
<path d="M154.168 27H151.156L144.254 19.2305L142.52 21.082V27H140.199V9.55078H142.52V18.6562L150.992 9.55078H153.805L146.012 17.7539L154.168 27Z" fill="white"/>
<path d="M95.7031 27H92.6914L86.8555 20.0625H83.5859V27H81.2656V9.55078H86.1523C87.207 9.55078 88.0859 9.62109 88.7891 9.76172C89.4922 9.89453 90.125 10.1367 90.6875 10.4883C91.3203 10.8867 91.8125 11.3906 92.1641 12C92.5234 12.6016 92.7031 13.3672 92.7031 14.2969C92.7031 15.5547 92.3867 16.6094 91.7539 17.4609C91.1211 18.3047 90.25 18.9414 89.1406 19.3711L95.7031 27ZM90.2773 14.4609C90.2773 13.9609 90.1875 13.5195 90.0078 13.1367C89.8359 12.7461 89.5469 12.418 89.1406 12.1523C88.8047 11.9258 88.4062 11.7695 87.9453 11.6836C87.4844 11.5898 86.9414 11.543 86.3164 11.543H83.5859V18.1289H85.9297C86.6641 18.1289 87.3047 18.0664 87.8516 17.9414C88.3984 17.8086 88.8633 17.5664 89.2461 17.2148C89.5977 16.8867 89.8555 16.5117 90.0195 16.0898C90.1914 15.6602 90.2773 15.1172 90.2773 14.4609Z" fill="white"/>
<path d="M77.5742 27H66.0781V9.55078H77.5742V11.6133H68.3984V16.3945H77.5742V18.457H68.3984V24.9375H77.5742V27Z" fill="white"/>
<path d="M63.4648 27H60.4531L53.5508 19.2305L51.8164 21.082V27H49.4961V9.55078H51.8164V18.6562L60.2891 9.55078H63.1016L55.3086 17.7539L63.4648 27Z" fill="white"/>
<path d="M46.8242 27H43.8125L36.9102 19.2305L35.1758 21.082V27H32.8555V9.55078H35.1758V18.6562L43.6484 9.55078H46.4609L38.668 17.7539L46.8242 27Z" fill="white"/>
<path d="M28.8477 27H21.957V25.2188H24.2422V11.332H21.957V9.55078H28.8477V11.332H26.5625V25.2188H28.8477V27Z" fill="white"/>
<path d="M18.9688 22.0195C18.9688 22.6992 18.8086 23.3711 18.4883 24.0352C18.1758 24.6992 17.7344 25.2617 17.1641 25.7227C16.5391 26.2227 15.8086 26.6133 14.9727 26.8945C14.1445 27.1758 13.1445 27.3164 11.9727 27.3164C10.7148 27.3164 9.58203 27.1992 8.57422 26.9648C7.57422 26.7305 6.55469 26.3828 5.51562 25.9219V23.0156H5.67969C6.5625 23.75 7.58203 24.3164 8.73828 24.7148C9.89453 25.1133 10.9805 25.3125 11.9961 25.3125C13.4336 25.3125 14.5508 25.043 15.3477 24.5039C16.1523 23.9648 16.5547 23.2461 16.5547 22.3477C16.5547 21.5742 16.3633 21.0039 15.9805 20.6367C15.6055 20.2695 15.0312 19.9844 14.2578 19.7812C13.6719 19.625 13.0352 19.4961 12.3477 19.3945C11.668 19.293 10.9453 19.1641 10.1797 19.0078C8.63281 18.6797 7.48438 18.1211 6.73438 17.332C5.99219 16.5352 5.62109 15.5 5.62109 14.2266C5.62109 12.7656 6.23828 11.5703 7.47266 10.6406C8.70703 9.70312 10.2734 9.23438 12.1719 9.23438C13.3984 9.23438 14.5234 9.35156 15.5469 9.58594C16.5703 9.82031 17.4766 10.1094 18.2656 10.4531V13.1953H18.1016C17.4375 12.6328 16.5625 12.168 15.4766 11.8008C14.3984 11.4258 13.293 11.2383 12.1602 11.2383C10.918 11.2383 9.91797 11.4961 9.16016 12.0117C8.41016 12.5273 8.03516 13.1914 8.03516 14.0039C8.03516 14.7305 8.22266 15.3008 8.59766 15.7148C8.97266 16.1289 9.63281 16.4453 10.5781 16.6641C11.0781 16.7734 11.7891 16.9062 12.7109 17.0625C13.6328 17.2188 14.4141 17.3789 15.0547 17.543C16.3516 17.8867 17.3281 18.4062 17.9844 19.1016C18.6406 19.7969 18.9688 20.7695 18.9688 22.0195Z" fill="white"/>
</svg>
